<svg viewBox="0 0 1920 1080" xmlns="http://www.w3.org/2000/svg"><style>.st1{fill:#ffe8a9}.st2{fill:#d65050}</style><path fill="#4bbfa9" d="M0 0h1920v1080H0z"/><path class="st1" d="M1370.5 884.063c.3 19.6-16.2 35.6-31 49.8s-29.9 32.2-25.7 51.4c-20.3-36.9-74.5-53.1-87.1-92.7-2.4-7.6-3.1-15.6-2.8-23.6.2-8.4 1.8-17.5 8.3-23.3 6.7-6 17-7.2 26.3-6.1 20.9 2.4 40.1 14.9 49.5 32.1.9-4.5 1.7-8.9 3.2-13.2 2.7-7.6 8.2-15.2 16.7-17.4 11.9-3.1 23.7 5.4 30.9 14.6 6.5 8.3 11.6 18.1 11.7 28.4z" fill="#ffe8a9"/><path class="st1" d="M1366 884.063c-.1 21.1-19 35.9-32.7 49.6-14 14-27.9 31.8-23.9 52.9 2.7-1.2 5.5-2.3 8.2-3.5-15-26.7-43.4-41-65.3-61.2-11.1-10.2-20.5-22.4-23.2-37.6-1.6-9.2-2.2-20.9 1.8-29.6 4.4-9.3 14.8-11.4 24.2-10.9 19.9 1.1 39 12.8 48.8 30.1 1.8 3.2 7.5 2.8 8.2-1.1 1.4-7.1 2.7-14.7 7.2-20.7 4.9-6.5 12.4-8.8 20.1-6 14.5 5.4 26 23.1 26.6 38 .2 5.8 9.2 5.8 9 0-.8-19.3-15.4-41.5-34.5-47-9.1-2.6-18.7-.2-25.4 6.5-7.3 7.2-9.6 17.2-11.5 26.9 2.7-.4 5.5-.7 8.2-1.1-9.5-16.9-26.6-28.9-45.4-33-19.4-4.3-41.8.2-46.1 22.5-3.6 18.8.6 38.9 11.9 54.2 10.1 13.6 23.7 23.8 37 34 15.2 11.6 31.1 23.5 40.6 40.5 2.6 4.7 9.1 1.4 8.2-3.5-4-21.4 16.1-38.7 29.7-52 13.3-13 27.1-28.3 27.1-48 .3-5.8-8.7-5.8-8.8 0zM954.2 190.863c-.8-7.6-1.7-15.5.6-22.8s8.3-14 15.9-14.5c3.1-.2 6.2.6 9 2 14.6 6.9 19.8 26.2 15.4 41.7s-15.9 27.7-27.6 38.7c-11.8 11-24.5 21.5-32.3 35.6-5.9-13-11.8-26-17.7-39.1-4.3-9.5-8.6-19-10.5-29.2-1.2-6.5-1.5-13.1-1.7-19.7-.2-6.8-.2-14.5 4.5-19.4 7.1-7.5 20.2-3.8 27.9 3.1 7.8 6.9 13.3 16.4 22.2 21.6" fill="#ffe8a9"/><path class="st1" d="M958.7 190.863c-.9-8.4-2.3-18.2 2.3-25.8 4.3-7.1 11.6-8.8 18.7-4.4 11.4 6.9 14.4 22.7 11.2 34.7-4 15.5-15.9 27.5-27.3 38.1-11.9 11-24.2 21.7-32.4 35.9h7.8c-6.4-14.1-12.9-28.2-19.3-42.4-3.1-6.9-6-13.9-7.8-21.2-1.8-7.5-2.1-15.2-2.3-22.8-.2-5.6-.5-13.3 4.8-16.8 4.7-3.1 11.3-1.1 15.8 1.4 10.9 6.2 16.6 18.6 27.3 25.2 4.9 3 9.5-4.7 4.5-7.8-12.5-7.7-18.4-22.6-32.8-27.8-13.7-4.9-26.5 2.2-28.3 16.8-2 16.2 1.1 33.7 7.3 48.7 7.1 17.2 15.3 34.1 23 51.1 1.4 3.2 6.2 2.7 7.8 0 15.5-26.8 46.9-40.7 58.6-70.2 4.6-11.7 4.7-25-.7-36.4-5.1-10.9-17.6-21-30.2-17.6-18 4.9-18.7 26.2-17 41.2.6 5.8 9.6 5.8 9 .1zM1499.9 745.163c-6.8-10.2 3.2-26 15.5-25.8 12.3.1 21.9 13.5 20.2 25.6-1.1 7.7-5.7 14.4-10.1 20.8-6.9 9.8-13.7 19.7-20.6 29.5-.9 1.3-1.9 2.7-3.4 3.2-1.1.4-2.3.2-3.4 0-30.4-5.2-54.5-35.2-53-66 .1-2.1.4-4.3 1.6-5.9 1.4-1.9 3.7-2.7 6-3.3 17.5-4.4 37.5 4 46.7 19.5" fill="#ffe8a9"/><path class="st1" d="M1503.8 742.863c-3.7-6.2-.1-14 5.8-17.4 7-4 14.9.4 18.7 6.6 4.8 7.8 2.7 16.2-1.7 23.7-5.4 9.2-12.1 17.8-18.2 26.6-1.5 2.2-3 4.4-4.6 6.6-.8 1.1-2.4 4.6-3.8 5.2-2.7 1-9.1-1.9-11.7-2.9-7.6-3-14.6-7.7-20.4-13.4-11.5-11.4-19-27.5-18.4-43.8.1-3.1.4-5.1 3.7-6.1 2.1-.6 4.3-1 6.5-1.1 4.6-.3 9.1.3 13.5 1.5 9.2 2.7 17.2 8.6 22.2 16.8 3 4.9 10.8.4 7.8-4.5-5.9-9.6-14.9-16.6-25.6-20.3-9.2-3.2-24-4.8-32.3 1.4-8.5 6.4-4.7 23-2.2 31.6 3 10.3 8.5 19.8 15.6 27.8 7.4 8.4 16.8 14.9 27.3 18.8 4.6 1.8 11.2 4.2 16.1 3 5.9-1.4 9.2-9 12.4-13.5l12.6-18c4.2-6 8.6-11.9 11.2-18.7 3.8-10 2-21-5.1-29.1-7.6-8.8-20.4-11.5-30-4.4-8.7 6.4-12.9 18.7-7 28.4 2.8 4.7 10.6.2 7.6-4.8zM1313.9 254.163c-6.8-10.2 3.2-26 15.5-25.8 12.3.1 21.9 13.5 20.2 25.6-1.1 7.7-5.7 14.4-10.1 20.8-6.9 9.8-13.7 19.7-20.6 29.5-.9 1.3-1.9 2.7-3.4 3.2-1.1.4-2.3.2-3.4 0-30.4-5.2-54.5-35.2-53-66 .1-2.1.4-4.3 1.6-5.9 1.4-1.9 3.7-2.7 6-3.3 17.5-4.4 37.5 4 46.7 19.5" fill="#ffe8a9"/><path class="st1" d="M1317.8 251.863c-3.7-6.2-.1-14 5.8-17.4 7-4 14.9.4 18.7 6.6 4.8 7.8 2.7 16.2-1.7 23.7-5.4 9.2-12.1 17.8-18.2 26.6-1.5 2.2-3 4.4-4.6 6.6-.8 1.1-2.4 4.6-3.8 5.2-2.7 1-9.1-1.9-11.7-2.9-7.6-3-14.6-7.7-20.4-13.4-11.5-11.4-19-27.5-18.4-43.8.1-3.1.4-5.1 3.7-6.1 2.1-.6 4.3-1 6.5-1.1 4.6-.3 9.1.3 13.5 1.5 9.2 2.7 17.2 8.6 22.2 16.8 3 4.9 10.8.4 7.8-4.5-5.9-9.6-14.9-16.6-25.6-20.3-9.2-3.2-24-4.8-32.3 1.4-8.5 6.4-4.7 23-2.2 31.6 3 10.3 8.5 19.8 15.6 27.8 7.4 8.4 16.8 14.9 27.3 18.8 4.6 1.8 11.2 4.2 16.1 3 5.9-1.4 9.2-9 12.4-13.5l12.6-18c4.2-6 8.6-11.9 11.2-18.7 3.8-10 2-21-5.1-29.1-7.6-8.8-20.4-11.5-30-4.4-8.7 6.4-12.9 18.7-7 28.4 2.8 4.7 10.6.2 7.6-4.8zM1092.9 560.163c-6.8-10.2 3.2-26 15.5-25.8 12.3.1 21.9 13.5 20.2 25.6-1.1 7.7-5.7 14.4-10.1 20.8-6.9 9.8-13.7 19.7-20.6 29.5-.9 1.3-1.9 2.7-3.4 3.2-1.1.4-2.3.2-3.4 0-30.4-5.2-54.5-35.2-53-66 .1-2.1.4-4.3 1.6-5.9 1.4-1.9 3.7-2.7 6-3.3 17.5-4.4 37.5 4 46.7 19.5" fill="#ffe8a9"/><path class="st1" d="M1096.8 557.863c-3.7-6.2-.1-14 5.8-17.4 7-4 14.9.4 18.7 6.6 4.8 7.8 2.7 16.2-1.7 23.7-5.4 9.2-12.1 17.8-18.2 26.6-1.5 2.2-3 4.4-4.6 6.6-.8 1.1-2.4 4.6-3.8 5.2-2.7 1-9.1-1.9-11.7-2.9-7.6-3-14.6-7.7-20.4-13.4-11.5-11.4-19-27.5-18.4-43.8.1-3.1.4-5.1 3.7-6.1 2.1-.6 4.3-1 6.5-1.1 4.6-.3 9.1.3 13.5 1.5 9.2 2.7 17.2 8.6 22.2 16.8 3 4.9 10.8.4 7.8-4.5-5.9-9.6-14.9-16.6-25.6-20.3-9.2-3.2-24-4.8-32.3 1.4-8.5 6.4-4.7 23-2.2 31.6 3 10.3 8.5 19.8 15.6 27.8 7.4 8.4 16.8 14.9 27.3 18.8 4.6 1.8 11.2 4.2 16.1 3 5.9-1.4 9.2-9 12.4-13.5l12.6-18c4.2-6 8.6-11.9 11.2-18.7 3.8-10 2-21-5.1-29.1-7.6-8.8-20.4-11.5-30-4.4-8.7 6.4-12.9 18.7-7 28.4 2.8 4.7 10.6.2 7.6-4.8z" fill="#ffe8a9"/><path class="st2" d="M1450.8 98.863c.3 19.6-16.2 35.6-31 49.8s-29.9 32.2-25.7 51.4c-20.3-36.9-74.5-53.1-87.1-92.7-2.4-7.6-3.1-15.6-2.8-23.6.2-8.4 1.8-17.5 8.3-23.3 6.7-6 17-7.2 26.3-6.1 20.9 2.4 40.1 14.9 49.5 32.1.9-4.5 1.7-8.9 3.2-13.2 2.7-7.6 8.2-15.2 16.7-17.4 11.9-3.1 23.7 5.4 30.9 14.6 6.5 8.4 11.5 18.1 11.7 28.4z" fill="#d65050"/><path class="st2" d="M1446.3 98.863c-.1 21.1-19 35.9-32.7 49.6-14 14-27.9 31.8-23.9 52.9 2.7-1.2 5.5-2.3 8.2-3.5-15-26.7-43.4-41-65.3-61.2-11.1-10.2-20.5-22.4-23.2-37.6-1.6-9.2-2.2-20.9 1.8-29.6 4.4-9.3 14.8-11.4 24.2-10.9 19.9 1.1 39 12.8 48.8 30.1 1.8 3.2 7.5 2.8 8.2-1.1 1.4-7.1 2.7-14.7 7.2-20.7 4.9-6.5 12.4-8.8 20.1-6 14.5 5.4 26 23.1 26.6 38 .2 5.8 9.2 5.8 9 0-.8-19.3-15.4-41.5-34.5-47-9.1-2.6-18.7-.2-25.4 6.5-7.3 7.2-9.6 17.2-11.5 26.9 2.7-.4 5.5-.7 8.2-1.1-9.5-16.9-26.6-28.9-45.4-33-19.4-4.3-41.8.2-46.1 22.5-3.6 18.8.6 38.9 11.9 54.2 10.1 13.6 23.7 23.8 37 34 15.2 11.6 31.1 23.5 40.6 40.5 2.6 4.7 9.1 1.4 8.2-3.5-4-21.4 16.1-38.7 29.7-52 13.3-13 27.1-28.3 27.1-48 .2-5.8-8.8-5.8-8.8 0zM1212 720.163c.3 12.8-12.8 23.1-24.5 32.4-11.7 9.2-23.6 20.9-20.3 33.4-16-24-58.9-34.5-68.8-60.2-1.9-5-2.4-10.2-2.2-15.3.2-5.5 1.4-11.3 6.6-15.2 5.3-3.9 13.4-4.7 20.8-4 16.5 1.5 31.7 9.7 39.1 20.9.7-2.9 1.3-5.8 2.5-8.6 2.1-5 6.5-9.9 13.2-11.3 9.4-2 18.7 3.5 24.4 9.5 5.1 5.4 9.1 11.7 9.2 18.4z" fill="#d65050"/><path class="st2" d="M1207.5 720.163c-.2 14.3-16.9 23.8-26.5 31.9-10.4 8.7-21.3 20.4-18.1 35.1 2.7-1.2 5.5-2.3 8.2-3.5-15.6-22.7-44.7-29.6-62.5-49.8-5-5.7-7.7-12.4-8-20-.3-9.5 2.8-16.4 12.9-18 16-2.5 35.9 5.1 45.2 18.5 2.1 3 7.3 2.9 8.2-1.1 1.1-4.7 2.2-9.6 5.8-13.1 4-3.9 9.7-4.7 15-3 9.3 3 19.1 12.9 19.8 23 .4 5.8 9.4 5.8 9 0-.9-14.6-13.9-28.8-28-32.1-7-1.6-14.3-.5-20 4-6.1 4.7-8.4 11.6-10.2 18.9 2.7-.4 5.5-.7 8.2-1.1-8.3-12-21.9-19.5-36.1-22.1-13.4-2.5-31.8-1.9-37.2 13.3-4.6 13-.2 28.1 8.3 38.3 7.8 9.4 18.7 16 29 22.5 11.7 7.4 24.8 14.8 32.8 26.4 2.9 4.2 9.3 1.6 8.2-3.5-3.1-14.5 15.5-25.9 24.8-33.6 9.6-7.9 19.9-17.6 20.1-31 .2-5.8-8.8-5.8-8.9 0zM1096 947.163c.3 12.8-12.8 23.1-24.5 32.4-11.7 9.2-23.6 20.9-20.3 33.4-16-24-58.9-34.5-68.8-60.2-1.9-5-2.4-10.2-2.2-15.3.2-5.5 1.4-11.3 6.6-15.2 5.3-3.9 13.4-4.7 20.8-4 16.5 1.5 31.7 9.7 39.1 20.9.7-2.9 1.3-5.8 2.5-8.6 2.1-5 6.5-9.9 13.2-11.3 9.4-2 18.7 3.5 24.4 9.5 5.1 5.4 9.1 11.7 9.2 18.4z" fill="#d65050"/><path class="st2" d="M1091.5 947.163c-.2 14.3-16.9 23.8-26.5 31.9-10.4 8.7-21.3 20.4-18.1 35.1 2.7-1.2 5.5-2.3 8.2-3.5-15.6-22.7-44.7-29.6-62.5-49.8-5-5.7-7.7-12.4-8-20-.3-9.5 2.8-16.4 12.9-18 16-2.5 35.9 5.1 45.2 18.5 2.1 3 7.3 2.9 8.2-1.1 1.1-4.7 2.2-9.6 5.8-13.1 4-3.9 9.7-4.7 15-3 9.3 3 19.1 12.9 19.8 23 .4 5.8 9.4 5.8 9 0-.9-14.6-13.9-28.8-28-32.1-7-1.6-14.3-.5-20 4-6.1 4.7-8.4 11.6-10.2 18.9 2.7-.4 5.5-.7 8.2-1.1-8.3-12-21.9-19.5-36.1-22.1-13.4-2.5-31.8-1.9-37.2 13.3-4.6 13-.2 28.1 8.3 38.3 7.8 9.4 18.7 16 29 22.5 11.7 7.4 24.8 14.8 32.8 26.4 2.9 4.2 9.3 1.6 8.2-3.5-3.1-14.5 15.5-25.9 24.8-33.6 9.6-7.9 19.9-17.6 20.1-31 .2-5.8-8.8-5.8-8.9 0zM1539.4 246.663c-.8-7.6-1.7-15.5.6-22.8 2.2-7.3 8.3-14 15.9-14.5 3.1-.2 6.2.6 9 2 14.6 6.9 19.8 26.2 15.4 41.7-4.3 15.5-15.9 27.9-27.6 38.8-11.8 11-24.5 21.5-32.3 35.6-5.9-13-11.8-26-17.7-39.1-4.3-9.5-8.6-19-10.5-29.2-1.2-6.5-1.5-13.1-1.7-19.7-.2-6.8-.2-14.5 4.5-19.4 7.1-7.5 20.2-3.8 27.9 3.1s13.3 16.4 22.2 21.6" fill="#d65050"/><path class="st2" d="M1543.9 246.663c-.9-8.4-2.3-18.2 2.3-25.8 4.3-7.1 11.6-8.8 18.7-4.4 11.4 6.9 14.4 22.7 11.2 34.7-4 15.5-15.9 27.5-27.3 38.1-11.9 11-24.2 21.7-32.4 35.9h7.8c-6.4-14.1-12.9-28.2-19.3-42.4-3.1-6.9-6-13.9-7.8-21.2-1.8-7.5-2.1-15.2-2.3-22.8-.2-5.6-.5-13.3 4.8-16.8 4.7-3.1 11.3-1.1 15.8 1.4 10.9 6.2 16.6 18.6 27.3 25.2 4.9 3 9.5-4.7 4.5-7.8-12.5-7.7-18.4-22.6-32.8-27.8-13.7-4.9-26.5 2.2-28.3 16.8-2 16.2 1.1 33.7 7.3 48.7 7.1 17.2 15.3 34.1 23 51.1 1.4 3.2 6.2 2.7 7.8 0 15.5-26.8 46.9-40.7 58.6-70.2 4.6-11.7 4.7-25-.7-36.4-5.1-10.9-17.6-21-30.2-17.6-18 4.9-18.7 26.2-17 41.2.7 5.8 9.7 5.9 9 .1zM1815.2 294.963c-6.8-10.2 3.2-26 15.5-25.8s21.9 13.5 20.2 25.6c-1.1 7.7-5.7 14.4-10.1 20.8-6.9 9.8-13.7 19.7-20.6 29.5-.9 1.3-1.9 2.7-3.4 3.2-1.1.4-2.3.2-3.4 0-30.4-5.2-54.5-35.2-53-66 .1-2.1.4-4.3 1.6-5.9 1.4-1.9 3.7-2.7 6-3.3 17.5-4.4 37.5 4 46.7 19.5" fill="#d65050"/><path class="st2" d="M1819.1 292.763c-3.7-6.2-.1-14 5.8-17.4 7-4 14.9.4 18.7 6.6 4.8 7.8 2.7 16.2-1.7 23.7-5.4 9.2-12.1 17.8-18.2 26.6-1.5 2.2-3 4.4-4.6 6.6-.8 1.1-2.4 4.6-3.8 5.2-2.7 1-9.1-1.9-11.7-2.9-7.6-3-14.6-7.7-20.4-13.4-11.5-11.4-19-27.5-18.4-43.8.1-3.1.4-5.1 3.7-6.1 2.1-.6 4.3-1 6.5-1.1 4.6-.3 9.1.3 13.5 1.5 9.2 2.7 17.2 8.6 22.2 16.8 3 4.9 10.8.4 7.8-4.5-5.9-9.6-14.9-16.6-25.6-20.3-9.2-3.2-24-4.8-32.3 1.4-8.5 6.4-4.7 23-2.2 31.6 3 10.3 8.5 19.8 15.6 27.8 7.4 8.4 16.8 14.9 27.3 18.8 4.6 1.8 11.2 4.2 16.1 3 5.9-1.4 9.2-9 12.4-13.5l12.6-18c4.2-6 8.6-11.9 11.2-18.7 3.8-10 2-21-5.1-29.1-7.6-8.8-20.4-11.5-30-4.4-8.7 6.4-12.9 18.7-7 28.4 2.8 4.7 10.6.2 7.6-4.8zM1149.2 112.963c-6.8-10.2 3.2-26 15.5-25.8s21.9 13.5 20.2 25.6c-1.1 7.7-5.7 14.4-10.1 20.8-6.9 9.8-13.7 19.7-20.6 29.5-.9 1.3-1.9 2.7-3.4 3.2-1.1.4-2.3.2-3.4 0-30.4-5.2-54.5-35.2-53-66 .1-2.1.4-4.3 1.6-5.9 1.4-1.9 3.7-2.7 6-3.3 17.5-4.4 37.5 4 46.7 19.5" fill="#d65050"/><path class="st2" d="M1153.1 110.763c-3.7-6.2-.1-14 5.8-17.4 7-4 14.9.4 18.7 6.6 4.8 7.8 2.7 16.2-1.7 23.7-5.4 9.2-12.1 17.8-18.2 26.6-1.5 2.2-3 4.4-4.6 6.6-.8 1.1-2.4 4.6-3.8 5.2-2.7 1-9.1-1.9-11.7-2.9-7.6-3-14.6-7.7-20.4-13.4-11.5-11.4-19-27.5-18.4-43.8.1-3.1.4-5.1 3.7-6.1 2.1-.6 4.3-1 6.5-1.1 4.6-.3 9.1.3 13.5 1.5 9.2 2.7 17.2 8.6 22.2 16.8 3 4.9 10.8.4 7.8-4.5-5.9-9.6-14.9-16.6-25.6-20.3-9.2-3.2-24-4.8-32.3 1.4-8.5 6.4-4.7 23-2.2 31.6 3 10.3 8.5 19.8 15.6 27.8 7.4 8.4 16.8 14.9 27.3 18.8 4.6 1.8 11.2 4.2 16.1 3 5.9-1.4 9.2-9 12.4-13.5l12.6-18c4.2-6 8.6-11.9 11.2-18.7 3.8-10 2-21-5.1-29.1-7.6-8.8-20.4-11.5-30-4.4-8.7 6.4-12.9 18.7-7 28.4 2.8 4.7 10.6.2 7.6-4.8z" fill="#d65050"/><path class="st1" d="M1658.8 172.063c-.3 19.6 16.2 35.6 31 49.8s29.9 32.2 25.7 51.4c20.3-36.9 74.5-53.1 87.1-92.7 2.4-7.6 3.1-15.6 2.8-23.6-.2-8.4-1.8-17.5-8.3-23.3-6.7-6-17-7.2-26.3-6.1-20.9 2.4-40.1 14.9-49.5 32.1-.9-4.5-1.7-8.9-3.2-13.2-2.7-7.6-8.2-15.2-16.7-17.4-11.9-3.1-23.7 5.4-30.9 14.6-6.5 8.3-11.6 18.1-11.7 28.4z" fill="#ffe8a9"/><path class="st1" d="M1654.3 172.063c.1 19.7 13.9 35 27.1 48 13.6 13.3 33.8 30.6 29.7 52-.9 4.8 5.6 8.2 8.2 3.5 17-30.3 52.1-43.7 73.8-69.7 12.4-14.8 18-32.5 16.6-51.8-.7-9.6-3.5-19.3-11.5-25.2s-18.6-6.8-28.2-5.7c-21.6 2.6-41.9 15.1-52.7 34.2 2.7.4 5.5.7 8.2 1.1-1.9-9.7-4.2-19.7-11.5-26.9-6.7-6.7-16.3-9.1-25.4-6.5-18.9 5.5-33.5 27.7-34.3 47-.2 5.8 8.8 5.8 9 0 .6-14.9 12.1-32.6 26.4-37.9 7.4-2.7 14.6-.7 19.6 5.3 4.9 6 6.3 13.9 7.7 21.3.8 3.9 6.4 4.3 8.2 1.1 8.8-15.6 24.7-26.1 42.3-29.4 8.5-1.6 19.6-1.8 26.5 4.3 7.2 6.4 7.3 17.7 7 26.6-1.4 34-31.2 52.5-55.3 71.5-13.1 10.3-25.8 21.5-34 36.1 2.7 1.2 5.5 2.3 8.2 3.5 4-21-9.9-38.8-23.9-52.9-13.6-13.6-32.6-28.5-32.7-49.6-.1-5.7-9.1-5.7-9 .1zM1447.1 458.863c.8-7.6 1.7-15.5-.6-22.8-2.2-7.3-8.3-14-15.9-14.5-3.1-.2-6.2.6-9 2-14.6 6.9-19.8 26.2-15.4 41.7 4.3 15.5 15.9 27.9 27.6 38.8s24.5 21.5 32.3 35.6c5.9-13 11.8-26 17.7-39.1 4.3-9.5 8.6-19 10.5-29.2 1.2-6.5 1.5-13.1 1.7-19.7.2-6.8.2-14.5-4.5-19.4-7.1-7.5-20.2-3.8-27.9 3.1s-13.3 16.4-22.2 21.6" fill="#ffe8a9"/><path class="st1" d="M1451.6 458.863c1.5-13.9 1.7-31-12.1-39.1-11.8-7-25.8.7-32.7 11-16.8 25.2.6 53.8 19.1 72 12.7 12.5 27.2 23.5 36.3 39.1 1.6 2.7 6.3 3.2 7.8 0 7.6-16.7 15.6-33.3 22.7-50.2 6.4-15.3 9.7-33 7.7-49.6-1.8-14.3-14.1-21.7-27.7-17.1-14.9 5-20.8 20.2-33.5 28-4.9 3-.4 10.8 4.5 7.8 10.6-6.5 16.2-18.6 26.7-24.9 4.4-2.7 10.9-4.9 15.8-2.2 5.9 3.2 5.5 11.4 5.4 17.2-.2 7.3-.5 14.8-2.1 21.9-1.7 7.4-4.6 14.4-7.6 21.3-6.5 14.5-13.1 28.8-19.6 43.3h7.8c-8.1-14-20.1-24.5-31.8-35.4-11.6-10.7-23.8-22.8-27.9-38.6-3.1-11.8-.3-27.3 10.7-34.4 7.2-4.6 14.8-3.3 19.3 4.1 4.6 7.6 3.2 17.4 2.3 25.8-.7 5.7 8.3 5.7 8.9 0zM1001.8 717.563c2.1-7.4 4.2-15 3.3-22.6-1-7.6-5.8-15.2-13.3-17-3-.7-6.2-.4-9.2.4-15.5 4.3-23.9 22.4-22.2 38.5 1.7 16 10.9 30.1 20.7 42.9s20.5 25.4 25.9 40.5c8-11.8 16.1-23.7 24.1-35.5 5.8-8.6 11.7-17.3 15.3-27 2.3-6.2 3.6-12.7 5-19.1 1.4-6.7 2.6-14.2-1.2-19.9-5.8-8.6-19.2-7.2-28-1.7s-15.8 13.9-25.6 17.6" fill="#ffe8a9"/><path class="st1" d="M1006.2 718.763c3.8-13.4 7-30-4.8-40.6-10.2-9.1-25.4-4.6-34.1 4.4-8.4 8.7-12.5 21.6-11.5 33.6 1.3 15 8.7 28.5 17.4 40.5 10.4 14.5 23.1 27.8 29.4 44.8 1.4 3.7 6 4.4 8.2 1.1 10.3-15.2 21.1-30.1 30.8-45.6 8.7-13.9 14.7-30.6 15.5-47 .8-14.6-10.4-23.5-24.4-21.4-15.4 2.3-23.6 16.3-37.4 21.8-5.3 2.1-3 10.8 2.4 8.7 5.9-2.4 10.8-5.8 15.7-9.7 4.9-4 9.8-8.5 15.8-10.7 4.6-1.6 10.9-2.5 15.1.6 5.8 4.3 3.6 13.3 2.4 19.2-1.5 7.5-3.2 15-6.3 22-2.9 6.3-6.6 12.2-10.4 17.9-8.9 13.3-18 26.6-27 39.8 2.7.4 5.5.7 8.2 1.1-5.6-15.2-15.6-27.5-25.3-40.2-9.5-12.5-19.7-26.6-21.2-42.7-1.1-12.2 4-26.8 15.7-32.3 7.7-3.6 15.1-1.6 18.6 6.3 3.7 8.3.7 17.9-1.7 26.2-1.4 5.4 7.3 7.8 8.9 2.2zM1682.1 458.863c.8-7.6 1.7-15.5-.6-22.8-2.2-7.3-8.3-14-15.9-14.5-3.1-.2-6.2.6-9 2-14.6 6.9-19.8 26.2-15.4 41.7 4.3 15.5 15.9 27.9 27.6 38.8s24.5 21.5 32.3 35.6c5.9-13 11.8-26 17.7-39.1 4.3-9.5 8.6-19 10.5-29.2 1.2-6.5 1.5-13.1 1.7-19.7.2-6.8.2-14.5-4.5-19.4-7.1-7.5-20.2-3.8-27.9 3.1s-13.3 16.4-22.2 21.6" fill="#ffe8a9"/><path class="st1" d="M1686.6 458.863c1.5-13.9 1.7-31-12.1-39.1-11.8-7-25.8.7-32.7 11-16.8 25.2.6 53.8 19.1 72 12.7 12.5 27.2 23.5 36.3 39.1 1.6 2.7 6.3 3.2 7.8 0 7.6-16.7 15.6-33.3 22.7-50.2 6.4-15.3 9.7-33 7.7-49.6-1.8-14.3-14.1-21.7-27.7-17.1-14.9 5-20.8 20.2-33.5 28-4.9 3-.4 10.8 4.5 7.8 10.6-6.5 16.2-18.6 26.7-24.9 4.4-2.7 10.9-4.9 15.8-2.2 5.9 3.2 5.5 11.4 5.4 17.2-.2 7.3-.5 14.8-2.1 21.9-1.7 7.4-4.6 14.4-7.6 21.3-6.5 14.5-13.1 28.8-19.6 43.3h7.8c-8.1-14-20.1-24.5-31.8-35.4-11.6-10.7-23.8-22.8-27.9-38.6-3.1-11.8-.3-27.3 10.7-34.4 7.2-4.6 14.8-3.3 19.3 4.1 4.6 7.6 3.2 17.4 2.3 25.8-.7 5.7 8.3 5.7 8.9 0zM1750.4 726.163c6.8-10.2-3.2-26-15.5-25.8-12.3.1-21.9 13.5-20.2 25.6 1.1 7.7 5.7 14.4 10.1 20.8 6.9 9.8 13.7 19.7 20.6 29.5.9 1.3 1.9 2.7 3.4 3.2 1.1.4 2.3.2 3.4 0 30.4-5.2 54.5-35.2 53-66-.1-2.1-.4-4.3-1.6-5.9-1.4-1.9-3.7-2.7-6-3.3-17.5-4.4-37.5 4-46.7 19.5" fill="#ffe8a9"/><path class="st1" d="M1754.2 728.463c5.1-8.6 2.6-19.3-4.3-26.1-7.3-7.3-18.3-8.5-27-2.9s-13.9 16.2-12.7 26.5c1.5 13.1 11.5 24.1 18.7 34.5 4.4 6.3 8.6 12.9 13.3 19 3.8 4.9 8.2 5 14 3.7 10.9-2.4 21-8 29.3-15.3 8.4-7.4 15-16.8 19.3-27.1 3.8-9.3 6.9-21.7 4.4-31.7-3.2-12.6-22.7-11.5-32.4-9.1-12.3 3-23 10.8-29.7 21.5-3.1 4.9 4.7 9.5 7.8 4.5 4.4-7.1 11-12.6 18.9-15.7 7-2.7 16.9-4.5 24.1-1.4 6.4 2.7 2.1 18.3.5 23.5-2.4 7.8-6.4 15.2-11.7 21.5-5.1 6.1-11.1 11.2-18.1 15-3.6 2-7.4 3.5-11.3 4.7-1.6.5-4.1 1.4-5.8 1.3-2.4-.1-3.1-2.3-4.5-4.3-6.4-9.2-12.9-18.4-19.2-27.6-5-7.3-10.7-15.8-8.1-25 2.2-7.5 9.7-15.1 18.1-12.8 7.5 2.1 12.8 11.6 8.6 18.6-2.9 5.1 4.9 9.6 7.8 4.7zM1818.4 559.163c6.8-10.2-3.2-26-15.5-25.8-12.3.1-21.9 13.5-20.2 25.6 1.1 7.7 5.7 14.4 10.1 20.8 6.9 9.8 13.7 19.7 20.6 29.5.9 1.3 1.9 2.7 3.4 3.2 1.1.4 2.3.2 3.4 0 30.4-5.2 54.5-35.2 53-66-.1-2.1-.4-4.3-1.6-5.9-1.4-1.9-3.7-2.7-6-3.3-17.5-4.4-37.5 4-46.7 19.5" fill="#ffe8a9"/><path class="st1" d="M1822.2 561.463c5.1-8.6 2.6-19.3-4.3-26.1-7.3-7.3-18.3-8.5-27-2.9s-13.9 16.2-12.7 26.5c1.5 13.1 11.5 24.1 18.7 34.5 4.4 6.3 8.6 12.9 13.3 19 3.8 4.9 8.2 5 14 3.7 10.9-2.4 21-8 29.3-15.3 8.4-7.4 15-16.8 19.3-27.1 3.8-9.3 6.9-21.7 4.4-31.7-3.2-12.6-22.7-11.5-32.4-9.1-12.3 3-23 10.8-29.7 21.5-3.1 4.9 4.7 9.5 7.8 4.5 4.4-7.1 11-12.6 18.9-15.7 7-2.7 16.9-4.5 24.1-1.4 6.4 2.7 2.1 18.3.5 23.5-2.4 7.8-6.4 15.2-11.7 21.5-5.1 6.1-11.1 11.2-18.1 15-3.6 2-7.4 3.5-11.3 4.7-1.6.5-4.1 1.4-5.8 1.3-2.4-.1-3.1-2.3-4.5-4.3-6.4-9.2-12.9-18.4-19.2-27.6-5-7.3-10.7-15.8-8.1-25 2.2-7.5 9.7-15.1 18.1-12.8 7.5 2.1 12.8 11.6 8.6 18.6-2.9 5.1 4.9 9.6 7.8 4.7z" fill="#ffe8a9"/><path class="st2" d="M1658.3 917.963c-.3 19.6 16.2 35.6 31 49.8s29.9 32.2 25.7 51.4c20.3-36.9 74.5-53.1 87.1-92.7 2.4-7.6 3.1-15.6 2.8-23.6-.2-8.4-1.8-17.5-8.3-23.3-6.7-6-17-7.2-26.3-6.1-20.9 2.4-40.1 14.9-49.5 32.1-.9-4.5-1.7-8.9-3.2-13.2-2.7-7.6-8.2-15.2-16.7-17.4-11.9-3.1-23.7 5.4-30.9 14.6-6.5 8.3-11.5 18.1-11.7 28.4z" fill="#d65050"/><path class="st2" d="M1653.8 917.963c.1 19.7 13.9 35 27.1 48 13.6 13.3 33.8 30.6 29.7 52-.9 4.8 5.6 8.2 8.2 3.5 17-30.3 52.1-43.7 73.8-69.7 12.4-14.8 18-32.5 16.6-51.8-.7-9.6-3.5-19.3-11.5-25.2s-18.6-6.8-28.2-5.7c-21.6 2.6-41.9 15.1-52.7 34.2 2.7.4 5.5.7 8.2 1.1-1.9-9.7-4.2-19.7-11.5-26.9-6.7-6.7-16.3-9.1-25.4-6.5-18.9 5.5-33.5 27.7-34.3 47-.2 5.8 8.8 5.8 9 0 .6-14.9 12.1-32.6 26.4-37.9 7.4-2.7 14.6-.7 19.6 5.3 4.9 6 6.3 13.9 7.7 21.3.8 3.9 6.4 4.3 8.2 1.1 8.8-15.6 24.7-26.1 42.3-29.4 8.5-1.6 19.6-1.8 26.5 4.3 7.2 6.4 7.3 17.7 7 26.6-1.4 34-31.2 52.5-55.3 71.5-13.1 10.3-25.8 21.5-34 36.1 2.7 1.2 5.5 2.3 8.2 3.5 4-21-9.9-38.8-23.9-52.9-13.6-13.6-32.6-28.5-32.7-49.6 0-5.7-9-5.7-9 .1zM1636.6 657.763c.8-7.6 1.7-15.5-.6-22.8s-8.3-14-15.9-14.5c-3.1-.2-6.2.6-9 2-14.6 6.9-19.8 26.2-15.4 41.7 4.3 15.5 15.9 27.9 27.6 38.8 11.8 11 24.5 21.5 32.3 35.6 5.9-13 11.8-26 17.7-39.1 4.3-9.5 8.6-19 10.5-29.2 1.2-6.5 1.5-13.1 1.7-19.7.2-6.8.2-14.5-4.5-19.4-7.1-7.5-20.2-3.8-27.9 3.1-7.8 6.9-13.3 16.4-22.2 21.6" fill="#d65050"/><path class="st2" d="M1641.1 657.763c1.5-13.9 1.7-31-12.1-39.1-11.8-7-25.8.7-32.7 11-16.8 25.2.6 53.8 19.1 72 12.7 12.5 27.2 23.5 36.3 39.1 1.6 2.7 6.3 3.2 7.8 0 7.6-16.7 15.6-33.3 22.7-50.2 6.4-15.3 9.7-33 7.7-49.6-1.8-14.3-14.1-21.7-27.7-17.1-14.9 5-20.8 20.2-33.5 28-4.9 3-.4 10.8 4.5 7.8 10.6-6.5 16.2-18.6 26.7-24.9 4.4-2.7 10.9-4.9 15.8-2.2 5.9 3.2 5.5 11.4 5.4 17.2-.2 7.3-.5 14.8-2.1 21.9-1.7 7.4-4.6 14.4-7.6 21.3-6.5 14.5-13.1 28.8-19.6 43.3h7.8c-8.1-14-20.1-24.5-31.8-35.4-11.6-10.7-23.8-22.8-27.9-38.6-3.1-11.8-.3-27.3 10.7-34.4 7.2-4.6 14.8-3.3 19.3 4.1 4.6 7.6 3.2 17.4 2.3 25.8-.7 5.7 8.3 5.7 8.9 0zM1483.5 927.063c3.8-11.7-10-24.2-21.8-20.8s-17.6 18.8-12.6 30.1c3.1 7.1 9.3 12.3 15.3 17.3 9.2 7.7 18.5 15.3 27.7 23 1.2 1 2.5 2.1 4.1 2.1 1.2.1 2.3-.4 3.3-.9 27.9-13.1 43.2-48.4 33.5-77.7-.7-2-1.5-4-3.1-5.3-1.8-1.4-4.3-1.6-6.6-1.5-18.1.5-35 13.8-39.8 31.2" fill="#d65050"/><path class="st2" d="M1487.9 928.263c2.9-10.4-3.5-20.7-13-25s-20-1.1-26.3 7.1c-6 8-7.5 19.1-3.3 28.3 5.5 12.1 18.4 20.2 28.3 28.4 5.5 4.6 10.8 9.6 16.6 13.7 5.7 4.1 10.9 1.7 16.4-1.6 9.2-5.4 16.9-13.3 22.6-22.3 5.7-9.1 9.4-19.5 10.7-30.1 1.2-10 .9-22.9-4.2-31.9-6.4-11.4-24.9-5.1-33.7-.2-11.1 6.2-19.3 16.5-22.9 28.6-1.6 5.6 7 7.9 8.7 2.4 2.4-8.1 7.3-15.1 14-20.1 5.7-4.3 16.2-9.6 23.7-7.7 3.8 1 4.4 7.3 5.1 10.6.8 4 1 8.1.9 12.2-.3 8-2.2 16-5.4 23.3-3.2 7.1-7.6 13.6-13.1 19-2.6 2.6-5.4 4.9-8.5 6.9-1.5 1-3.1 1.9-4.7 2.8-.5.3-2.4 1.5-3 1.4-1.4-.1-3.5-2.5-4.5-3.3-8.6-7.1-17.2-14.2-25.8-21.4-6.3-5.3-13.7-11.5-14.5-20.3-.7-7.4 3.3-16.5 11-18.6 8.6-2.4 18.7 6.4 16.3 15.2-1.6 5.8 7 8.2 8.6 2.6zM1289.6 570.863c1.4-12.2-14.6-21.7-25.5-16s-13.5 21.9-6.4 32c4.5 6.4 11.6 10.2 18.4 13.9 10.6 5.7 21.1 11.3 31.7 17 1.4.7 2.9 1.5 4.4 1.3 1.1-.2 2.1-.8 3.1-1.5 24.8-18.4 32.7-56.1 17.4-82.8-1-1.8-2.2-3.6-4.1-4.6-2.1-1-4.5-.7-6.8-.2-17.6 4.1-31.6 20.5-32.8 38.5" fill="#d65050"/><path class="st2" d="M1294.1 570.863c.7-10.1-6.9-18.5-16.2-21.2-9.6-2.9-19.3 1.1-24.5 9.4-5.4 8.5-5.4 20.4-.1 29 6.8 11 20.4 16.4 31.3 22.2 7 3.8 14 7.8 21.1 11.3 6.2 3 10.1 1.5 15.1-2.6 8.3-6.8 14.6-15.8 18.7-25.7 4.2-9.9 6.2-20.9 5.6-31.7-.6-10.7-3.4-23.3-10.1-31.9-8.2-10.5-24.7-1.4-32.7 5-10.3 8.3-16.6 20.5-17.7 33.6-.5 5.8 8.5 5.7 9 0 .7-8.6 4.5-16.6 10.4-22.9 2.8-3 6-5.6 9.7-7.6 2.9-1.6 9.1-5.1 12.6-3.9 3.2 1.1 5.5 8.3 6.5 11.1 1.4 3.8 2.4 7.8 2.9 11.8 1.1 7.9.5 16-1.4 23.8-1.9 7.5-5.1 14.7-9.6 21-2.2 3.2-4.9 6.1-7.7 8.7-1 .9-3.3 3.6-4.7 3.9-2.4.5-7-3.1-9.1-4.2-9.6-5.1-19.3-10.1-28.8-15.5-7.4-4.2-14.9-9.5-15.9-18.7-.8-7.5 2.9-17.1 11.3-18.2 7.7-1 16 5.1 15.4 13.1-.5 6 8.5 6 8.9.2zM1177.6 389.863c1.4-12.2-14.6-21.7-25.5-16s-13.5 21.9-6.4 32c4.5 6.4 11.6 10.2 18.4 13.9 10.6 5.7 21.1 11.3 31.7 17 1.4.7 2.9 1.5 4.4 1.3 1.1-.2 2.1-.8 3.1-1.5 24.8-18.4 32.7-56.1 17.4-82.8-1-1.8-2.2-3.6-4.1-4.6-2.1-1-4.5-.7-6.8-.2-17.6 4.1-31.6 20.5-32.8 38.5" fill="#d65050"/><path class="st2" d="M1182.1 389.863c.7-10.1-6.9-18.5-16.2-21.2-9.6-2.9-19.3 1.1-24.5 9.4-5.4 8.5-5.4 20.4-.1 29 6.8 11 20.4 16.4 31.3 22.2 7 3.8 14 7.8 21.1 11.3 6.2 3 10.1 1.5 15.1-2.6 8.3-6.8 14.6-15.8 18.7-25.7 4.2-9.9 6.2-20.9 5.6-31.7-.6-10.7-3.4-23.3-10.1-31.9-8.2-10.5-24.7-1.4-32.7 5-10.3 8.3-16.6 20.5-17.7 33.6-.5 5.8 8.5 5.7 9 0 .7-8.6 4.5-16.6 10.4-22.9 2.8-3 6-5.6 9.7-7.6 2.9-1.6 9.1-5.1 12.6-3.9 3.2 1.1 5.5 8.3 6.5 11.1 1.4 3.8 2.4 7.8 2.9 11.8 1.1 7.9.5 16-1.4 23.8-1.9 7.5-5.1 14.7-9.6 21-2.2 3.2-4.9 6.1-7.7 8.7-1 .9-3.3 3.6-4.7 3.9-2.4.5-7-3.1-9.1-4.2-9.6-5.1-19.3-10.1-28.8-15.5-7.4-4.2-14.9-9.5-15.9-18.7-.8-7.5 2.9-17.1 11.3-18.2 7.7-1 16 5.1 15.4 13.1-.5 6 8.5 6 8.9.2zM1543.6 86.863c1.4-12.2-14.6-21.7-25.5-16s-13.5 21.9-6.4 32c4.5 6.4 11.6 10.2 18.4 13.9 10.6 5.7 21.1 11.3 31.7 17 1.4.7 2.9 1.5 4.4 1.3 1.1-.2 2.1-.8 3.1-1.5 24.8-18.4 32.7-56.1 17.4-82.8-1-1.8-2.2-3.6-4.1-4.6-2.1-1-4.5-.7-6.8-.2-17.6 4.1-31.6 20.5-32.8 38.5" fill="#d65050"/><path class="st2" d="M1548.1 86.863c.7-10.1-6.9-18.5-16.2-21.2-9.6-2.9-19.3 1.1-24.5 9.4-5.4 8.5-5.4 20.4-.1 29 6.8 11 20.4 16.4 31.3 22.2 7 3.8 14 7.8 21.1 11.3 6.2 3 10.1 1.5 15.1-2.6 8.3-6.8 14.6-15.8 18.7-25.7 4.2-9.9 6.2-20.9 5.6-31.7-.6-10.7-3.4-23.3-10.1-31.9-8.2-10.5-24.7-1.4-32.7 5-10.3 8.3-16.6 20.5-17.7 33.6-.5 5.8 8.5 5.7 9 0 .7-8.6 4.5-16.6 10.4-22.9 2.8-3 6-5.6 9.7-7.6 2.9-1.6 9.1-5.1 12.6-3.9 3.2 1.1 5.5 8.3 6.5 11.1 1.4 3.8 2.4 7.8 2.9 11.8 1.1 7.9.5 16-1.4 23.8-1.9 7.5-5.1 14.7-9.6 21-2.2 3.2-4.9 6.1-7.7 8.7-1 .9-3.3 3.6-4.7 3.9-2.4.5-7-3.1-9.1-4.2-9.6-5.1-19.3-10.1-28.8-15.5-7.4-4.2-14.9-9.5-15.9-18.7-.8-7.5 2.9-17.1 11.3-18.2 7.7-1 16 5.1 15.4 13.1-.5 6 8.5 6 8.9.2z" fill="#d65050"/><path class="st1" d="M544.6 887.063c-.3 19.6 16.2 35.6 31 49.8s29.9 32.2 25.7 51.4c20.3-36.9 74.5-53.1 87.1-92.7 2.4-7.6 3.1-15.6 2.8-23.6-.2-8.4-1.8-17.5-8.3-23.3-6.7-6-17-7.2-26.3-6.1-20.9 2.4-40.1 14.9-49.5 32.1-.9-4.5-1.7-8.9-3.2-13.2-2.7-7.6-8.2-15.2-16.7-17.4-11.9-3.1-23.7 5.4-30.9 14.6-6.5 8.3-11.5 18.1-11.7 28.4z" fill="#ffe8a9"/><path class="st1" d="M540.1 887.063c.1 19.7 13.9 35 27.1 48 13.6 13.3 33.8 30.6 29.7 52-.9 4.8 5.6 8.2 8.2 3.5 17-30.3 52.1-43.7 73.8-69.7 12.4-14.8 18-32.5 16.6-51.8-.7-9.6-3.5-19.3-11.5-25.2s-18.6-6.8-28.2-5.7c-21.6 2.6-41.9 15.1-52.7 34.2 2.7.4 5.5.7 8.2 1.1-1.9-9.7-4.2-19.7-11.5-26.9-6.7-6.7-16.3-9.1-25.4-6.5-18.9 5.5-33.5 27.7-34.3 47-.2 5.8 8.8 5.8 9 0 .6-14.9 12.1-32.6 26.4-37.9 7.4-2.7 14.6-.7 19.6 5.3 4.9 6 6.3 13.9 7.7 21.3.8 3.9 6.4 4.3 8.2 1.1 8.8-15.6 24.7-26.1 42.3-29.4 8.5-1.6 19.6-1.8 26.5 4.3 7.2 6.4 7.3 17.7 7 26.6-1.4 34-31.2 52.5-55.3 71.5-13.1 10.3-25.8 21.5-34 36.1 2.7 1.2 5.5 2.3 8.2 3.5 4-21-9.9-38.8-23.9-52.9-13.6-13.6-32.6-28.5-32.7-49.6-.1-5.7-9.1-5.7-9 .1zM726.9 388.863c.8-7.6 1.7-15.5-.6-22.8-2.2-7.3-8.3-14-15.9-14.5-3.1-.2-6.2.6-9 2-14.6 6.9-19.8 26.2-15.4 41.7 4.3 15.5 15.9 27.9 27.6 38.8s24.5 21.5 32.3 35.6c5.9-13 11.8-26 17.7-39.1 4.3-9.5 8.6-19 10.5-29.2 1.2-6.5 1.5-13.1 1.7-19.7.2-6.8.2-14.5-4.5-19.4-7.1-7.5-20.2-3.8-27.9 3.1-7.8 6.9-13.3 16.4-22.2 21.6" fill="#ffe8a9"/><path class="st1" d="M731.4 388.863c1.5-13.9 1.7-31-12.1-39.1-11.8-7-25.8.7-32.7 11-16.8 25.2.6 53.8 19.1 72 12.7 12.5 27.2 23.5 36.3 39.1 1.6 2.7 6.3 3.2 7.8 0 7.6-16.7 15.6-33.3 22.7-50.2 6.4-15.3 9.7-33 7.7-49.6-1.8-14.3-14.1-21.7-27.7-17.1-14.9 5-20.8 20.2-33.5 28-4.9 3-.4 10.8 4.5 7.8 10.6-6.5 16.2-18.6 26.7-24.9 4.4-2.7 10.9-4.9 15.8-2.2 5.9 3.2 5.5 11.4 5.4 17.2-.2 7.3-.5 14.8-2.1 21.9-1.7 7.4-4.6 14.4-7.6 21.3-6.5 14.5-13.1 28.8-19.6 43.3h7.8c-8.1-14-20.1-24.5-31.8-35.4-11.6-10.7-23.8-22.8-27.9-38.6-3.1-11.8-.3-27.3 10.7-34.4 7.2-4.6 14.8-3.3 19.3 4.1 4.6 7.6 3.2 17.4 2.3 25.8-.7 5.7 8.3 5.7 8.9 0zM415.2 748.163c6.8-10.2-3.2-26-15.5-25.8-12.3.1-21.9 13.5-20.2 25.6 1.1 7.7 5.7 14.4 10.1 20.8 6.9 9.8 13.7 19.7 20.6 29.5.9 1.3 1.9 2.7 3.4 3.2 1.1.4 2.3.2 3.4 0 30.4-5.2 54.5-35.2 53-66-.1-2.1-.4-4.3-1.6-5.9-1.4-1.9-3.7-2.7-6-3.3-17.5-4.4-37.5 4-46.7 19.5" fill="#ffe8a9"/><path class="st1" d="M419.1 750.463c5.1-8.6 2.6-19.3-4.3-26.1-7.3-7.3-18.3-8.5-27-2.9s-13.9 16.2-12.7 26.5c1.5 13.1 11.5 24.1 18.7 34.5 4.4 6.3 8.6 12.9 13.3 19 3.8 4.9 8.2 5 14 3.7 10.9-2.4 21-8 29.3-15.3 8.4-7.4 15-16.8 19.3-27.1 3.8-9.3 6.9-21.7 4.4-31.7-3.2-12.6-22.7-11.5-32.4-9.1-12.3 3-23 10.8-29.7 21.5-3.1 4.9 4.7 9.5 7.8 4.5 4.4-7.1 11-12.6 18.9-15.7 7-2.7 16.9-4.5 24.1-1.4 6.4 2.7 2.1 18.3.5 23.5-2.4 7.8-6.4 15.2-11.7 21.5-5.1 6.1-11.1 11.2-18.1 15-3.6 2-7.4 3.5-11.3 4.7-1.6.5-4.1 1.4-5.8 1.3-2.4-.1-3.1-2.3-4.5-4.3-6.4-9.2-12.9-18.4-19.2-27.6-5-7.3-10.7-15.8-8.1-25 2.2-7.5 9.7-15.1 18.1-12.8 7.5 2.1 12.8 11.6 8.6 18.6-3 5.1 4.8 9.6 7.8 4.7zM601.2 257.163c6.8-10.2-3.2-26-15.5-25.8-12.3.1-21.9 13.5-20.2 25.6 1.1 7.7 5.7 14.4 10.1 20.8 6.9 9.8 13.7 19.7 20.6 29.5.9 1.3 1.9 2.7 3.4 3.2 1.1.4 2.3.2 3.4 0 30.4-5.2 54.5-35.2 53-66-.1-2.1-.4-4.3-1.6-5.9-1.4-1.9-3.7-2.7-6-3.3-17.5-4.4-37.5 4-46.7 19.5" fill="#ffe8a9"/><path class="st1" d="M605.1 259.463c5.1-8.6 2.6-19.3-4.3-26.1-7.3-7.3-18.3-8.5-27-2.9s-13.9 16.2-12.7 26.5c1.5 13.1 11.5 24.1 18.7 34.5 4.4 6.3 8.6 12.9 13.3 19 3.8 4.9 8.2 5 14 3.7 10.9-2.4 21-8 29.3-15.3 8.4-7.4 15-16.8 19.3-27.1 3.8-9.3 6.9-21.7 4.4-31.7-3.2-12.6-22.7-11.5-32.4-9.1-12.3 3-23 10.8-29.7 21.5-3.1 4.9 4.7 9.5 7.8 4.5 4.4-7.1 11-12.6 18.9-15.7 7-2.7 16.9-4.5 24.1-1.4 6.4 2.7 2.1 18.3.5 23.5-2.4 7.8-6.4 15.2-11.7 21.5-5.1 6.1-11.1 11.2-18.1 15-3.6 2-7.4 3.5-11.3 4.7-1.6.5-4.1 1.4-5.8 1.3-2.4-.1-3.1-2.3-4.5-4.3-6.4-9.2-12.9-18.4-19.2-27.6-5-7.3-10.7-15.8-8.1-25 2.2-7.5 9.7-15.1 18.1-12.8 7.5 2.1 12.8 11.6 8.6 18.6-3 5.1 4.8 9.6 7.8 4.7zM324.2 83.163c6.8-10.2-3.2-26-15.5-25.8-12.3.1-21.9 13.5-20.2 25.6 1.1 7.7 5.7 14.4 10.1 20.8 6.9 9.8 13.7 19.7 20.6 29.5.9 1.3 1.9 2.7 3.4 3.2 1.1.4 2.3.2 3.4 0 30.4-5.2 54.5-35.2 53-66-.1-2.1-.4-4.3-1.6-5.9-1.4-1.9-3.7-2.7-6-3.3-17.5-4.4-37.5 4-46.7 19.5" fill="#ffe8a9"/><path class="st1" d="M328.1 85.463c5.1-8.6 2.6-19.3-4.3-26.1-7.3-7.3-18.3-8.5-27-2.9s-13.9 16.2-12.7 26.5c1.5 13.1 11.5 24.1 18.7 34.5 4.4 6.3 8.6 12.9 13.3 19 3.8 4.9 8.2 5 14 3.7 10.9-2.4 21-8 29.3-15.3 8.4-7.4 15-16.8 19.3-27.1 3.8-9.3 6.9-21.7 4.4-31.7-3.2-12.6-22.7-11.5-32.4-9.1-12.3 3-23 10.8-29.7 21.5-3.1 4.9 4.7 9.5 7.8 4.5 4.4-7.1 11-12.6 18.9-15.7 7-2.7 16.9-4.5 24.1-1.4 6.4 2.7 2.1 18.3.5 23.5-2.4 7.8-6.4 15.2-11.7 21.5-5.1 6.1-11.1 11.2-18.1 15-3.6 2-7.4 3.5-11.3 4.7-1.6.5-4.1 1.4-5.8 1.3-2.4-.1-3.1-2.3-4.5-4.3-6.4-9.2-12.9-18.4-19.2-27.6-5-7.3-10.7-15.8-8.1-25 2.2-7.5 9.7-15.1 18.1-12.8 7.5 2.1 12.8 11.6 8.6 18.6-3 5.1 4.8 9.6 7.8 4.7zM997.2 356.163c6.8-10.2-3.2-26-15.5-25.8-12.3.1-21.9 13.5-20.2 25.6 1.1 7.7 5.7 14.4 10.1 20.8 6.9 9.8 13.7 19.7 20.6 29.5.9 1.3 1.9 2.7 3.4 3.2 1.1.4 2.3.2 3.4 0 30.4-5.2 54.5-35.2 53-66-.1-2.1-.4-4.3-1.6-5.9-1.4-1.9-3.7-2.7-6-3.3-17.5-4.4-37.5 4-46.7 19.5" fill="#ffe8a9"/><path class="st1" d="M1001.1 358.463c5.1-8.6 2.6-19.3-4.3-26.1-7.3-7.3-18.3-8.5-27-2.9s-13.9 16.2-12.7 26.5c1.5 13.1 11.5 24.1 18.7 34.5 4.4 6.3 8.6 12.9 13.3 19 3.8 4.9 8.2 5 14 3.7 10.9-2.4 21-8 29.3-15.3 8.4-7.4 15-16.8 19.3-27.1 3.8-9.3 6.9-21.7 4.4-31.7-3.2-12.6-22.7-11.5-32.4-9.1-12.3 3-23 10.8-29.7 21.5-3.1 4.9 4.7 9.5 7.8 4.5 4.4-7.1 11-12.6 18.9-15.7 7-2.7 16.9-4.5 24.1-1.4 6.4 2.7 2.1 18.3.5 23.5-2.4 7.8-6.4 15.2-11.7 21.5-5.1 6.1-11.1 11.2-18.1 15-3.6 2-7.4 3.5-11.3 4.7-1.6.5-4.1 1.4-5.8 1.3-2.4-.1-3.1-2.3-4.5-4.3-6.4-9.2-12.9-18.4-19.2-27.6-5-7.3-10.7-15.8-8.1-25 2.2-7.5 9.7-15.1 18.1-12.8 7.5 2.1 12.8 11.6 8.6 18.6-3 5.1 4.8 9.6 7.8 4.7z" fill="#ffe8a9"/><path class="st2" d="M464.3 101.863c-.3 19.6 16.2 35.6 31 49.8s29.9 32.2 25.7 51.4c20.3-36.9 74.5-53.1 87.1-92.7 2.4-7.6 3.1-15.6 2.8-23.6-.2-8.4-1.8-17.5-8.3-23.3-6.7-6-17-7.2-26.3-6.1-20.9 2.4-40.1 14.9-49.5 32.1-.9-4.5-1.7-8.9-3.2-13.2-2.7-7.6-8.2-15.2-16.7-17.4-11.9-3.1-23.7 5.4-30.9 14.6-6.5 8.4-11.5 18.1-11.7 28.4z" fill="#d65050"/><path class="st2" d="M459.8 101.863c.1 19.7 13.9 35 27.1 48 13.6 13.3 33.8 30.6 29.7 52-.9 4.8 5.6 8.2 8.2 3.5 17-30.3 52.1-43.7 73.8-69.7 12.4-14.8 18-32.5 16.6-51.8-.7-9.6-3.5-19.3-11.5-25.2s-18.6-6.8-28.2-5.7c-21.5 2.6-41.8 15.1-52.5 34.2 2.7.4 5.5.7 8.2 1.1-1.9-9.7-4.2-19.7-11.5-26.9-6.7-6.7-16.3-9.1-25.4-6.5-19.1 5.5-33.7 27.8-34.5 47-.2 5.8 8.8 5.8 9 0 .6-14.9 12.1-32.6 26.4-37.9 7.4-2.7 14.6-.7 19.6 5.3 4.9 6 6.3 13.9 7.7 21.3.8 3.9 6.4 4.3 8.2 1.1 8.8-15.6 24.7-26.1 42.3-29.4 8.5-1.6 19.6-1.8 26.5 4.3 7.2 6.4 7.3 17.7 7 26.6-1.4 34-31.2 52.5-55.3 71.5-13.1 10.3-25.8 21.5-34 36.1 2.7 1.2 5.5 2.3 8.2 3.5 4-21-9.9-38.8-23.9-52.9-13.6-13.6-32.6-28.5-32.7-49.6 0-5.7-9-5.7-9 .1zM703.1 723.163c-.3 12.8 12.8 23.1 24.5 32.4 11.7 9.2 23.6 20.9 20.3 33.4 16-24 58.9-34.5 68.8-60.2 1.9-5 2.4-10.2 2.2-15.3-.2-5.5-1.4-11.3-6.6-15.2-5.3-3.9-13.4-4.7-20.8-4-16.5 1.5-31.7 9.7-39.1 20.9-.7-2.9-1.3-5.8-2.5-8.6-2.1-5-6.5-9.9-13.2-11.3-9.4-2-18.7 3.5-24.4 9.5-5.1 5.4-9 11.7-9.2 18.4z" fill="#d65050"/><path class="st2" d="M698.6 723.163c.2 13.4 10.5 23.1 20.1 31 9.4 7.7 28 19.1 24.8 33.6-1.1 5.1 5.3 7.7 8.2 3.5 14.2-20.7 41.3-28 58.7-45.5 9.8-9.8 14.5-22.6 12.6-36.5-2.2-16.3-17.8-21-32.3-19.4-16.4 1.7-32.6 9.2-42.2 23 2.7.4 5.5.7 8.2 1.1-1.7-7.3-4.1-14.1-10.2-18.9-5.7-4.5-13.1-5.6-20-4-14 3.4-26.9 17.5-27.9 32.1-.4 5.8 8.6 5.8 9 0 .7-10.1 10.5-20.1 19.9-23 5-1.6 10.4-1 14.5 2.6 3.9 3.5 5.1 8.6 6.3 13.6 1 4 6.1 4.1 8.2 1.1 9.3-13.5 29.2-21 45.2-18.5 4.2.7 8.6 2.2 10.9 6.1 2.1 3.5 2.1 8 2 11.9-.3 7.6-3 14.3-8 20-17.8 20.3-46.8 27.2-62.5 49.8 2.7 1.2 5.5 2.3 8.2 3.5 3.2-14.6-7.7-26.3-18.1-35.1-9.6-8.1-26.3-17.7-26.5-31.9-.2-5.9-9.2-5.9-9.1-.1zM782.1 507.163c-.3 12.8 12.8 23.1 24.5 32.4 11.7 9.2 23.6 20.9 20.3 33.4 16-24 58.9-34.5 68.8-60.2 1.9-5 2.4-10.2 2.2-15.3-.2-5.5-1.4-11.3-6.6-15.2-5.3-3.9-13.4-4.7-20.8-4-16.5 1.5-31.7 9.7-39.1 20.9-.7-2.9-1.3-5.8-2.5-8.6-2.1-5-6.5-9.9-13.2-11.3-9.4-2-18.7 3.5-24.4 9.5-5.1 5.4-9 11.7-9.2 18.4z" fill="#d65050"/><path class="st2" d="M777.6 507.163c.2 13.4 10.5 23.1 20.1 31 9.4 7.7 28 19.1 24.8 33.6-1.1 5.1 5.3 7.7 8.2 3.5 14.2-20.7 41.3-28 58.7-45.5 9.8-9.8 14.5-22.6 12.6-36.5-2.2-16.3-17.8-21-32.3-19.4-16.4 1.7-32.6 9.2-42.2 23 2.7.4 5.5.7 8.2 1.1-1.7-7.3-4.1-14.1-10.2-18.9-5.7-4.5-13.1-5.6-20-4-14 3.4-26.9 17.5-27.9 32.1-.4 5.8 8.6 5.8 9 0 .7-10.1 10.5-20.1 19.9-23 5-1.6 10.4-1 14.5 2.6 3.9 3.5 5.1 8.6 6.3 13.6 1 4 6.1 4.1 8.2 1.1 9.3-13.5 29.2-21 45.2-18.5 4.2.7 8.6 2.2 10.9 6.1 2.1 3.5 2.1 8 2 11.9-.3 7.6-3 14.3-8 20-17.8 20.3-46.8 27.2-62.5 49.8 2.7 1.2 5.5 2.3 8.2 3.5 3.2-14.6-7.7-26.3-18.1-35.1-9.6-8.1-26.3-17.7-26.5-31.9-.2-5.9-9.2-5.9-9.1-.1zM375.7 249.663c.8-7.6 1.7-15.5-.6-22.8-2.2-7.3-8.3-14-15.9-14.5-3.1-.2-6.2.6-9 2-14.6 6.9-19.8 26.2-15.4 41.7 4.3 15.5 15.9 27.9 27.6 38.8 11.8 11 24.5 21.5 32.3 35.6 5.9-13 11.8-26 17.7-39.1 4.3-9.5 8.6-19 10.5-29.2 1.2-6.5 1.5-13.1 1.7-19.7.2-6.8.2-14.5-4.5-19.4-7.1-7.5-20.2-3.8-27.9 3.1s-13.2 16.3-22.2 21.5" fill="#d65050"/><path class="st2" d="M380.2 249.663c1.5-13.9 1.7-31-12.1-39.1-11.8-7-25.8.7-32.7 11-16.8 25.2.6 53.8 19.1 72 12.7 12.5 27.2 23.5 36.3 39.1 1.6 2.7 6.3 3.2 7.8 0 7.6-16.7 15.6-33.3 22.7-50.2 6.4-15.3 9.7-33 7.7-49.6-1.8-14.3-14.1-21.7-27.7-17.1-14.9 5-20.8 20.2-33.5 28-4.9 3-.4 10.8 4.5 7.8 10.6-6.5 16.2-18.6 26.7-24.9 4.4-2.7 10.9-4.9 15.8-2.2 5.9 3.2 5.5 11.4 5.4 17.2-.2 7.3-.5 14.8-2.1 21.9-1.7 7.4-4.6 14.4-7.6 21.3-6.5 14.5-13.1 28.8-19.6 43.3h7.8c-8.1-14-20.1-24.5-31.8-35.4-11.6-10.7-23.8-22.8-27.9-38.6-3.1-11.8-.3-27.3 10.7-34.4 7.2-4.6 14.8-3.3 19.3 4.1 4.6 7.6 3.2 17.4 2.3 25.8-.8 5.8 8.2 5.7 8.9 0zM99.9 297.963c6.8-10.2-3.2-26-15.5-25.8s-21.9 13.5-20.2 25.6c1.1 7.7 5.7 14.4 10.1 20.8 6.9 9.8 13.7 19.7 20.6 29.5.9 1.3 1.9 2.7 3.4 3.2 1.1.4 2.3.2 3.4 0 30.4-5.2 54.5-35.2 53-66-.1-2.1-.4-4.3-1.6-5.9-1.4-1.9-3.7-2.7-6-3.3-17.5-4.4-37.5 4-46.7 19.5" fill="#d65050"/><path class="st2" d="M103.8 300.263c5.1-8.6 2.6-19.3-4.3-26.1-7.3-7.3-18.3-8.5-27-2.9s-13.9 16.2-12.7 26.5c1.5 13.1 11.5 24.1 18.7 34.5 4.4 6.3 8.6 12.9 13.3 19 3.8 4.9 8.2 5 14 3.7 10.9-2.4 21-8 29.3-15.3 8.4-7.4 15-16.8 19.3-27.1 3.8-9.3 6.9-21.7 4.4-31.7-3.2-12.6-22.7-11.5-32.4-9.1-12.3 3-23 10.8-29.7 21.5-3.1 4.9 4.7 9.5 7.8 4.5 4.4-7.1 11-12.6 18.9-15.7 7-2.7 16.9-4.5 24.1-1.4 6.4 2.7 2.1 18.3.5 23.5-2.4 7.8-6.4 15.2-11.7 21.5-5.1 6.1-11.1 11.2-18.1 15-3.6 2-7.4 3.5-11.3 4.7-1.6.5-4.1 1.4-5.8 1.3-2.4-.1-3.1-2.3-4.5-4.3-6.4-9.2-12.9-18.4-19.2-27.6-5-7.3-10.7-15.8-8.1-25 2.2-7.5 9.7-15.1 18.1-12.8 7.5 2.1 12.8 11.6 8.6 18.6-3 5.2 4.8 9.7 7.8 4.7zM99.9 528.963c6.8-10.2-3.2-26-15.5-25.8s-21.9 13.5-20.2 25.6c1.1 7.7 5.7 14.4 10.1 20.8 6.9 9.8 13.7 19.7 20.6 29.5.9 1.3 1.9 2.7 3.4 3.2 1.1.4 2.3.2 3.4 0 30.4-5.2 54.5-35.2 53-66-.1-2.1-.4-4.3-1.6-5.9-1.4-1.9-3.7-2.7-6-3.3-17.5-4.4-37.5 4-46.7 19.5" fill="#d65050"/><path class="st2" d="M103.8 531.263c5.1-8.6 2.6-19.3-4.3-26.1-7.3-7.3-18.3-8.5-27-2.9s-13.9 16.2-12.7 26.5c1.5 13.1 11.5 24.1 18.7 34.5 4.4 6.3 8.6 12.9 13.3 19 3.8 4.9 8.2 5 14 3.7 10.9-2.4 21-8 29.3-15.3 8.4-7.4 15-16.8 19.3-27.1 3.8-9.3 6.9-21.7 4.4-31.7-3.2-12.6-22.7-11.5-32.4-9.1-12.3 3-23 10.8-29.7 21.5-3.1 4.9 4.7 9.5 7.8 4.5 4.4-7.1 11-12.6 18.9-15.7 7-2.7 16.9-4.5 24.1-1.4 6.4 2.7 2.1 18.3.5 23.5-2.4 7.8-6.4 15.2-11.7 21.5-5.1 6.1-11.1 11.2-18.1 15-3.6 2-7.4 3.5-11.3 4.7-1.6.5-4.1 1.4-5.8 1.3-2.4-.1-3.1-2.3-4.5-4.3-6.4-9.2-12.9-18.4-19.2-27.6-5-7.3-10.7-15.8-8.1-25 2.2-7.5 9.7-15.1 18.1-12.8 7.5 2.1 12.8 11.6 8.6 18.6-3 5.2 4.8 9.7 7.8 4.7zM765.9 115.963c6.8-10.2-3.2-26-15.5-25.8-12.3.1-21.9 13.5-20.2 25.6 1.1 7.7 5.7 14.4 10.1 20.8 6.9 9.8 13.7 19.7 20.6 29.5.9 1.3 1.9 2.7 3.4 3.2 1.1.4 2.3.2 3.4 0 30.4-5.2 54.5-35.2 53-66-.1-2.1-.4-4.3-1.6-5.9-1.4-1.9-3.7-2.7-6-3.3-17.5-4.4-37.5 4-46.7 19.5" fill="#d65050"/><path class="st2" d="M769.8 118.263c5.1-8.6 2.6-19.3-4.3-26.1-7.3-7.3-18.3-8.5-27-2.9s-13.9 16.2-12.7 26.5c1.5 13.1 11.5 24.1 18.7 34.5 4.4 6.3 8.6 12.9 13.3 19 3.8 4.9 8.2 5 14 3.7 10.9-2.4 21-8 29.3-15.3 8.4-7.4 15-16.8 19.3-27.1 3.8-9.3 6.9-21.7 4.4-31.7-3.2-12.6-22.7-11.5-32.4-9.1-12.3 3-23 10.8-29.7 21.5-3.1 4.9 4.7 9.5 7.8 4.5 4.4-7.1 11-12.6 18.9-15.7 7-2.7 16.9-4.5 24.1-1.4 6.4 2.7 2.1 18.3.5 23.5-2.4 7.8-6.4 15.2-11.7 21.5-5.1 6.1-11.1 11.2-18.1 15-3.6 2-7.4 3.5-11.3 4.7-1.6.5-4.1 1.4-5.8 1.3-2.4-.1-3.1-2.3-4.5-4.3-6.4-9.2-12.9-18.4-19.2-27.6-5-7.3-10.7-15.8-8.1-25 2.2-7.5 9.7-15.1 18.1-12.8 7.5 2.1 12.8 11.6 8.6 18.6-3 5.2 4.8 9.7 7.8 4.7z" fill="#d65050"/><path class="st1" d="M256.4 175.063c.3 19.6-16.2 35.6-31 49.8s-29.9 32.2-25.7 51.4c-20.3-36.9-74.5-53.1-87.1-92.7-2.4-7.6-3.1-15.6-2.8-23.6.2-8.4 1.8-17.5 8.3-23.3 6.7-6 17-7.2 26.3-6.1 20.9 2.4 40.1 14.9 49.5 32.1.9-4.5 1.7-8.9 3.2-13.2 2.7-7.6 8.2-15.2 16.7-17.4 11.9-3.1 23.7 5.4 30.9 14.6 6.5 8.3 11.5 18.1 11.7 28.4z" fill="#ffe8a9"/><path class="st1" d="M251.9 175.063c-.1 21.1-19 35.9-32.7 49.6-14 14-27.9 31.8-23.9 52.9 2.7-1.2 5.5-2.3 8.2-3.5-15-26.7-43.4-41-65.3-61.2-11.1-10.2-20.5-22.4-23.2-37.6-1.6-9.2-2.2-20.9 1.8-29.6 4.4-9.3 14.8-11.4 24.2-10.9 19.9 1.1 39 12.8 48.8 30.1 1.8 3.2 7.5 2.8 8.2-1.1 1.4-7.1 2.7-14.7 7.2-20.7 4.9-6.5 12.4-8.8 20.1-6 14.4 5.4 25.9 23.1 26.6 38 .2 5.8 9.2 5.8 9 0-.8-19.3-15.4-41.5-34.5-47-9.1-2.6-18.7-.2-25.4 6.5-7.3 7.2-9.6 17.2-11.5 26.9 2.7-.4 5.5-.7 8.2-1.1-9.5-16.9-26.6-28.9-45.4-33-19.4-4.3-41.8.2-46.1 22.5-3.6 18.8.6 38.9 11.9 54.2 10.1 13.6 23.7 23.8 37 34 15.2 11.6 31.1 23.5 40.6 40.5 2.6 4.7 9.1 1.4 8.2-3.5-4-21.4 16.1-38.7 29.7-52 13.3-13 27.1-28.3 27.1-48 .2-5.8-8.8-5.8-8.8 0zM468 461.863c-.8-7.6-1.7-15.5.6-22.8 2.2-7.3 8.3-14 15.9-14.5 3.1-.2 6.2.6 9 2 14.6 6.9 19.8 26.2 15.4 41.7-4.3 15.5-15.9 27.9-27.6 38.8-11.8 11-24.5 21.5-32.3 35.6-5.9-13-11.8-26-17.7-39.1-4.3-9.5-8.6-19-10.5-29.2-1.2-6.5-1.5-13.1-1.7-19.7-.2-6.8-.2-14.5 4.5-19.4 7.1-7.5 20.2-3.8 27.9 3.1s13.3 16.4 22.2 21.6" fill="#ffe8a9"/><path class="st1" d="M472.5 461.863c-.9-8.4-2.3-18.2 2.3-25.8 4.3-7.1 11.6-8.8 18.7-4.4 11.4 6.9 14.4 22.7 11.2 34.7-4 15.5-15.9 27.5-27.3 38.1-11.9 11-24.2 21.7-32.4 35.9h7.8c-6.4-14.1-12.9-28.2-19.3-42.4-3.1-6.9-6-13.9-7.8-21.2-1.8-7.5-2.1-15.2-2.3-22.8-.2-5.6-.5-13.3 4.8-16.8 4.7-3.1 11.3-1.1 15.8 1.4 10.9 6.2 16.6 18.6 27.3 25.2 4.9 3 9.5-4.7 4.5-7.8-12.5-7.7-18.4-22.6-32.8-27.8-13.7-4.9-26.5 2.2-28.3 16.8-2 16.2 1.1 33.7 7.3 48.7 7.1 17.2 15.3 34.1 23 51.1 1.4 3.2 6.2 2.7 7.8 0 15.5-26.8 46.9-40.7 58.6-70.2 4.6-11.7 4.7-25-.7-36.4-5.1-10.9-17.6-21-30.2-17.6-18 4.9-18.7 26.2-17 41.2.6 5.8 9.6 5.8 9 .1zM866.3 882.563c-2.1-7.4-4.2-15-3.3-22.6 1-7.6 5.8-15.2 13.3-17 3-.7 6.2-.4 9.2.4 15.5 4.3 23.9 22.4 22.2 38.5s-10.9 30.1-20.7 42.9-20.5 25.4-25.9 40.5c-8-11.8-16.1-23.7-24.1-35.5-5.8-8.6-11.7-17.3-15.3-27-2.3-6.2-3.6-12.7-5-19.1-1.4-6.7-2.6-14.2 1.2-19.9 5.8-8.6 19.2-7.2 28-1.7s15.8 13.9 25.6 17.6" fill="#ffe8a9"/><path class="st1" d="M870.6 881.363c-2.3-8-5.2-17.3-2-25.5 3.2-7.9 10.4-10.6 18.3-7.3 12.1 5.2 17.4 20.2 16.3 32.5-1.4 15.9-11.3 29.8-20.7 42-9.9 12.9-20.1 25.5-25.8 40.9 2.7-.4 5.5-.7 8.2-1.1-9-13.3-18.1-26.5-27-39.8-3.8-5.8-7.6-11.6-10.4-17.9-3.2-7-4.8-14.5-6.3-22-1.2-6-3.4-14.9 2.4-19.2 4.2-3.1 10.5-2.2 15.1-.6 5.8 2.1 10.5 6.4 15.2 10.2 5.1 4.1 10.2 7.8 16.3 10.2 5.4 2.2 7.7-6.5 2.4-8.7-13.5-5.4-21.7-19.2-36.8-21.7-14.2-2.3-25.8 6.5-25 21.3.8 16.2 6.6 32.6 15.1 46.3 9.8 15.8 20.8 31 31.2 46.4 2.3 3.3 6.9 2.6 8.2-1.1 10.8-29.2 40.7-48.4 46.1-80.2 2.1-12.3-.3-25.3-7.9-35.3-7.3-9.7-21.7-17.1-33.4-10.5-15.7 8.9-12.4 28.9-8.3 43.2 1.7 5.9 10.4 3.5 8.8-2.1zM233 461.863c-.8-7.6-1.7-15.5.6-22.8 2.2-7.3 8.3-14 15.9-14.5 3.1-.2 6.2.6 9 2 14.6 6.9 19.8 26.2 15.4 41.7-4.3 15.5-15.9 27.9-27.6 38.8-11.8 11-24.5 21.5-32.3 35.6-5.9-13-11.8-26-17.7-39.1-4.3-9.5-8.6-19-10.5-29.2-1.2-6.5-1.5-13.1-1.7-19.7-.2-6.8-.2-14.5 4.5-19.4 7.1-7.5 20.2-3.8 27.9 3.1s13.3 16.4 22.2 21.6" fill="#ffe8a9"/><path class="st1" d="M237.5 461.863c-.9-8.4-2.3-18.2 2.3-25.8 4.3-7.1 11.6-8.8 18.7-4.4 11.4 6.9 14.4 22.7 11.2 34.7-4 15.5-15.9 27.5-27.3 38.1-11.9 11-24.2 21.7-32.4 35.9h7.8c-6.4-14.1-12.9-28.2-19.3-42.4-3.1-6.9-6-13.9-7.8-21.2-1.8-7.5-2.1-15.2-2.3-22.8-.2-5.6-.5-13.3 4.8-16.8 4.7-3.1 11.3-1.1 15.8 1.4 10.9 6.2 16.6 18.6 27.3 25.2 4.9 3 9.5-4.7 4.5-7.8-12.5-7.7-18.4-22.6-32.8-27.8-13.7-4.9-26.5 2.2-28.3 16.8-2 16.2 1.1 33.7 7.3 48.7 7.1 17.2 15.3 34.1 23 51.1 1.4 3.2 6.2 2.7 7.8 0 15.5-26.8 46.9-40.7 58.6-70.2 4.6-11.7 4.7-25-.7-36.4-5.1-10.9-17.6-21-30.2-17.6-18 4.9-18.7 26.2-17 41.2.6 5.8 9.6 5.8 9 .1zM164.8 729.163c-6.8-10.2 3.2-26 15.5-25.8 12.3.1 21.9 13.5 20.2 25.6-1.1 7.7-5.7 14.4-10.1 20.8-6.9 9.8-13.7 19.7-20.6 29.5-.9 1.3-1.9 2.7-3.4 3.2-1.1.4-2.3.2-3.4 0-30.4-5.2-54.5-35.2-53-66 .1-2.1.4-4.3 1.6-5.9 1.4-1.9 3.7-2.7 6-3.3 17.5-4.4 37.5 4 46.7 19.5" fill="#ffe8a9"/><path class="st1" d="M168.6 726.863c-3.7-6.2-.1-14 5.8-17.4 7-4 14.9.4 18.7 6.6 4.8 7.8 2.7 16.2-1.7 23.7-5.4 9.2-12.1 17.8-18.2 26.6-1.5 2.2-3 4.4-4.6 6.6-.8 1.1-2.4 4.6-3.8 5.2-2.7 1-9.1-1.9-11.7-2.9-7.6-3-14.6-7.7-20.4-13.4-11.5-11.4-19-27.5-18.4-43.8.1-3.1.4-5.1 3.7-6.1 2.1-.6 4.3-1 6.5-1.1 4.6-.3 9.1.3 13.5 1.5 9.2 2.7 17.2 8.6 22.2 16.8 3 4.9 10.8.4 7.8-4.5-5.9-9.6-14.9-16.6-25.6-20.3-9.2-3.2-24-4.8-32.3 1.4-8.5 6.4-4.7 23-2.2 31.6 3 10.3 8.5 19.8 15.6 27.8 7.4 8.4 16.8 14.9 27.3 18.8 4.6 1.8 11.2 4.2 16.1 3 5.9-1.4 9.2-9 12.4-13.5l12.6-18c4.2-6 8.6-11.9 11.2-18.7 3.8-10 2-21-5.1-29.1-7.6-8.8-20.4-11.5-30-4.4-8.7 6.4-12.9 18.7-7 28.4 2.8 4.7 10.6.2 7.6-4.8z" fill="#ffe8a9"/><path class="st2" d="M256.8 920.963c.3 19.6-16.2 35.6-31 49.8s-29.9 32.2-25.7 51.4c-20.3-36.9-74.5-53.1-87.1-92.7-2.4-7.6-3.1-15.6-2.8-23.6.2-8.4 1.8-17.5 8.3-23.3 6.7-6 17-7.2 26.3-6.1 20.9 2.4 40.1 14.9 49.5 32.1.9-4.5 1.7-8.9 3.2-13.2 2.7-7.6 8.2-15.2 16.7-17.4 11.9-3.1 23.7 5.4 30.9 14.6 6.5 8.3 11.6 18.1 11.7 28.4z" fill="#d65050"/><path class="st2" d="M252.3 920.963c-.1 21.1-19 35.9-32.7 49.6-14 14-27.9 31.8-23.9 52.9 2.7-1.2 5.5-2.3 8.2-3.5-15-26.7-43.4-41-65.3-61.2-11.1-10.2-20.5-22.4-23.2-37.6-1.6-9.2-2.2-20.9 1.8-29.6 4.4-9.3 14.8-11.4 24.2-10.9 19.9 1.1 39 12.8 48.8 30.1 1.8 3.2 7.5 2.8 8.2-1.1 1.4-7.1 2.7-14.7 7.2-20.7 4.9-6.5 12.4-8.8 20.1-6 14.5 5.4 26 23.1 26.6 38 .2 5.8 9.2 5.8 9 0-.8-19.3-15.4-41.5-34.5-47-9.1-2.6-18.7-.2-25.4 6.5-7.3 7.2-9.6 17.2-11.5 26.9 2.7-.4 5.5-.7 8.2-1.1-9.5-16.9-26.6-28.9-45.4-33-19.4-4.3-41.8.2-46.1 22.5-3.6 18.8.6 38.9 11.9 54.2 10.1 13.6 23.7 23.8 37 34 15.2 11.6 31.1 23.5 40.6 40.5 2.6 4.7 9.1 1.4 8.2-3.5-4-21.4 16.1-38.7 29.7-52 13.3-13 27.1-28.3 27.1-48 .3-5.8-8.7-5.8-8.8 0zM278.5 660.763c-.8-7.6-1.7-15.5.6-22.8s8.3-14 15.9-14.5c3.1-.2 6.2.6 9 2 14.6 6.9 19.8 26.2 15.4 41.7-4.3 15.5-15.9 27.9-27.6 38.8-11.8 11-24.5 21.5-32.3 35.6-5.9-13-11.8-26-17.7-39.1-4.3-9.5-8.6-19-10.5-29.2-1.2-6.5-1.5-13.1-1.7-19.7-.2-6.8-.2-14.5 4.5-19.4 7.1-7.5 20.2-3.8 27.9 3.1s13.3 16.4 22.2 21.6" fill="#d65050"/><path class="st2" d="M283 660.763c-.9-8.4-2.3-18.2 2.3-25.8 4.3-7.1 11.6-8.8 18.7-4.4 11.4 6.9 14.4 22.7 11.2 34.7-4 15.5-15.9 27.5-27.3 38.1-11.9 11-24.2 21.7-32.4 35.9h7.8c-6.4-14.1-12.9-28.2-19.3-42.4-3.1-6.9-6-13.9-7.8-21.2-1.8-7.5-2.1-15.2-2.3-22.8-.2-5.6-.5-13.3 4.8-16.8 4.7-3.1 11.3-1.1 15.8 1.4 10.9 6.2 16.6 18.6 27.3 25.2 4.9 3 9.5-4.7 4.5-7.8-12.5-7.7-18.4-22.6-32.8-27.8-13.7-4.9-26.5 2.2-28.3 16.8-2 16.2 1.1 33.7 7.3 48.7 7.1 17.2 15.3 34.1 23 51.1 1.4 3.2 6.2 2.7 7.8 0 15.5-26.8 46.9-40.7 58.6-70.2 4.6-11.7 4.7-25-.7-36.4-5.1-10.9-17.6-21-30.2-17.6-18 4.9-18.7 26.2-17 41.2.6 5.8 9.6 5.8 9 .1zM431.6 930.063c-3.8-11.7 10-24.2 21.8-20.8s17.6 18.8 12.6 30.1c-3.1 7.1-9.3 12.3-15.3 17.3-9.2 7.7-18.5 15.3-27.7 23-1.2 1-2.5 2.1-4.1 2.1-1.2.1-2.3-.4-3.3-.9-27.9-13.1-43.2-48.4-33.5-77.7.7-2 1.5-4 3.1-5.3 1.8-1.4 4.3-1.6 6.6-1.5 18.1.5 35 13.8 39.8 31.2" fill="#d65050"/><path class="st2" d="M435.9 928.863c-2.1-7.6 4.9-14.9 12.3-15.6 7.7-.7 13.3 6.6 14.6 13.4 1.7 8.6-2.9 15.5-8.9 21.1-7.9 7.4-16.6 14.1-25 21-2.1 1.7-4.1 3.4-6.2 5.1-2.4 2-3.3 3.5-6.3 2.5-3.7-1.3-7.4-4.2-10.4-6.7-6-4.9-10.9-11-14.7-17.8-7.5-13.5-10.1-30-5.9-45 .8-3 1.5-5.5 4.8-6.1 2.3-.4 5 .2 7.3.7 4.3.9 8.3 2.5 12.1 4.7 8.5 5.1 14.8 13 17.5 22.5 1.6 5.5 10.3 3.2 8.7-2.4-3.2-11-10.3-20.4-19.9-26.7-8-5.3-22-10.9-31.5-6.6-9.4 4.3-10.2 21.2-10 30.1.2 10.7 3 21.4 7.9 30.9 4.8 9.6 11.8 18 20.4 24.4 3.8 2.9 8.4 6.1 13.1 7.4 7.1 1.9 13-5.4 17.9-9.4 5.6-4.7 11.3-9.4 16.9-14 5.3-4.4 10.8-8.7 15-14.2 6.5-8.5 8.3-19.1 4-29.1-4.4-10.3-15.3-17.4-26.6-14-11 3.3-19.2 14.6-16 26.1 1.8 5.7 10.5 3.3 8.9-2.3zM625.5 573.863c-1.4-12.2 14.6-21.7 25.5-16s13.5 21.9 6.4 32c-4.5 6.4-11.6 10.2-18.4 13.9-10.6 5.7-21.1 11.3-31.7 17-1.4.7-2.9 1.5-4.4 1.3-1.1-.2-2.1-.8-3.1-1.5-24.8-18.4-32.7-56.1-17.4-82.8 1-1.8 2.2-3.6 4.1-4.6 2.1-1 4.5-.7 6.8-.2 17.6 4.1 31.6 20.5 32.8 38.5" fill="#d65050"/><path class="st2" d="M630 573.863c-.5-7.2 5.7-12.4 12.5-13.1 7.6-.8 12.9 5.7 14.1 12.7 1.4 8.6-3 15.7-9.8 20.5-8.6 6.1-18.5 10.5-27.7 15.4-4.5 2.4-9.3 5.9-14.1 7.6-3.6 1.2-7.8-4.3-10.1-6.8-5.6-6-9.8-13.4-12.4-21.2-5-14.8-4.8-31.8 2.2-46 1.1-2.2 2.4-5.6 5.1-6 1.9-.3 4.6.8 6.4 1.5 4.6 1.6 8.9 4.3 12.5 7.6 7.2 6.6 12.1 15.6 12.9 25.4.5 5.7 9.5 5.8 9 0-1-11.7-6-22.6-14.5-30.8-6.7-6.6-19.5-14.9-29.5-12.3-5.6 1.5-8.4 7.1-10.6 11.9-2.4 5.3-4.1 10.8-5 16.6-1.7 10.6-1 21.6 2 31.9 3.1 10.7 8.7 20.7 16.4 28.7 3 3.1 6.9 7.2 11.1 8.6 6.5 2.2 14.2-4.2 19.6-7.1 19-10.2 52.9-22.3 44.6-50.3-3.1-10.6-12.7-18.3-24-16.7-10.7 1.5-20.5 10.6-19.7 21.9.4 5.8 9.4 5.8 9 0z" fill="#d65050"/></svg>